<svg t="1609675443607" class="icon" viewBox="0 0 1024 1024" version="1.1" xmlns="http://www.w3.org/2000/svg" p-id="2572" width="128" height="128"><path d="M998.976 383.872c-72.128-269.12-348.672-428.736-617.728-356.672-269.12 72.064-428.8 348.672-356.672 617.728 12.608 47.104 31.808 90.496 55.744 130.24l0.064 0c8.32 14.4 23.68 24.32 41.536 24.32 26.56 0 48-21.568 48-48.064 0-9.6-2.88-18.496-7.744-26.048l0.256-0.128c-19.328-32.064-34.816-67.2-45.056-105.216-58.368-217.792 70.912-441.6 288.704-500.032 217.792-58.368 441.6 70.912 499.968 288.704 58.304 217.792-70.848 441.6-288.704 500.032-111.04 29.76-223.488 10.304-314.944-44.352-7.872-5.504-17.344-8.896-27.712-8.896-26.496 0-48 21.44-48 48 0 17.6 9.472 32.704 23.552 41.216l-0.256 0.448c113.536 68.992 253.824 93.632 392.256 56.512C911.36 929.472 1071.104 652.928 998.976 383.872zM511.552 586.112c26.56 0 48.064-21.504 48.064-48.064l0.128-292.672c0-26.496-21.504-48-48-48-26.56 0-48 21.504-48 48L463.488 538.048C463.488 564.608 484.992 586.112 511.552 586.112zM459.904 727.04c0 28.48 23.104 51.584 51.648 51.584s51.648-23.04 51.648-51.584l0.128-1.536c0-28.544-23.04-51.648-51.584-51.648-28.48 0-51.648 23.04-51.648 51.648L459.904 727.04z"></path></svg>